<svg xmlns="http://www.w3.org/2000/svg" width="491" height="137" version="1.2"><style>.a{fill:#7b2a90}</style><path d="M178.6 30.2c-2.6-3.4-6.7-5.3-11-5.3-7.7 0-12.8 5.9-12.8 13.4 0 7.6 5.2 13.1 13 13.1 4.1 0 8.2-2 10.8-5.1v15c-4.2 1.3-7.2 2.2-11.1 2.2-6.7 0-13.1-2.5-18.1-7.1-5.3-4.8-7.7-11-7.7-18.2 0-6.6 2.5-12.9 7.1-17.6 4.7-4.9 11.6-7.8 18.4-7.8 4 0 7.7.9 11.4 2.4z" class="a"/><path fill-rule="evenodd" d="M220 45.9c0 11.1-9.2 17.4-19.8 17.4-10.5 0-19.7-6.2-19.7-17.4s9.2-17.5 19.7-17.5c10.6 0 19.8 6.3 19.8 17.5zm-27.3 0c0 4.1 2.8 7.3 7.5 7.3s7.5-3.2 7.5-7.3c0-4-2.8-7.4-7.5-7.4s-7.5 3.4-7.5 7.4z" class="a"/><path d="M233.7 33.7h.1c2.7-4 5.9-5.3 10.5-5.3 8.8 0 12.3 5.5 12.3 13.6v20.3H245v-16c0-3.2.5-8.7-5.3-8.7-4.7 0-6 3.6-6 7.7v17H222V29.5h11.7zm36.9 0h.1c2.7-4 6-5.3 10.5-5.3 8.8 0 12.4 5.5 12.4 13.6v20.3h-11.7v-16c0-3.2.5-8.7-5.2-8.7-4.8 0-6.1 3.6-6.1 7.7v17H259V29.5h11.6z" class="a"/><path fill-rule="evenodd" d="M331.7 47.8h-24.5c0 4.7 2.5 7.3 7.3 7.3 2.5 0 4.3-.8 5.6-3h11.2c-1.9 7.7-9.2 11.2-16.7 11.2-10.9 0-19-6.1-19-17.4 0-10.9 7.5-17.5 18.2-17.5 11.4 0 17.9 7 17.9 18.2zm-10.8-6.7c-.5-3.2-3.4-5.2-6.6-5.2-3.3 0-6.2 1.8-6.9 5.2z" class="a"/><path d="M359.6 40.1c-1.7-1.2-3.7-2.3-6-2.3-4.4 0-8 3.5-8 8 0 4.8 3.4 8.1 8.2 8.1 2.1 0 4.3-.8 5.8-2.3v9.9c-2.5 1.3-5.3 1.8-8.1 1.8-9.8 0-17.9-7.2-17.9-17.1 0-10.5 8.1-17.8 18.4-17.8 2.7 0 5.3.6 7.6 1.9zm18.9 22.2h-11.6V39.1h-3.8v-9.6h3.8v-9.9h11.6v9.9h6.6v9.6h-6.6zm21.6-45.4c0 3.5-2.9 6.5-6.5 6.5a6.55 6.55 0 0 1 0-13.1c3.6 0 6.5 3 6.5 6.6zm-.7 45.4h-11.6V29.5h11.6zm28.1-22.2c-1.7-1.2-3.7-2.3-6-2.3-4.5 0-8 3.5-8 8 0 4.8 3.4 8.1 8.2 8.1 2.1 0 4.3-.8 5.8-2.3v9.9c-2.5 1.3-5.3 1.8-8.2 1.8-9.7 0-17.8-7.2-17.8-17.1 0-10.5 8.1-17.8 18.4-17.8 2.6 0 5.3.6 7.6 1.9zm14.4-10.6V47c0 4.1 1.1 7.1 5.9 7.1 4.8 0 5.8-3 5.8-7.1V29.5h11.6v19.7c0 10.8-7.6 14.1-17.4 14.1-9.9 0-17.5-3.3-17.5-14.1V29.5zm41.3 32.8h-11.6V39.1h-3.8v-9.6h3.8v-9.9h11.6v9.9h6.6v9.6h-6.6zm-295.7 32c-3.2-4.3-8.3-6.6-13.6-6.6-9.6 0-16 7.3-16 16.6 0 9.5 6.5 16.3 16.2 16.3 5.1 0 10.2-2.5 13.4-6.4v18.7c-5.2 1.6-8.9 2.8-13.7 2.8-8.4 0-16.3-3.2-22.5-8.8-6.6-6-9.6-13.8-9.6-22.7 0-8.1 3.1-16 8.8-21.9 5.9-6 14.4-9.7 22.8-9.7 5 0 9.6 1.1 14.2 3.1zM206 68.2v30.3h.1c3.3-4.4 7.4-6.5 13-6.5 10.3 0 15.3 6.8 15.3 17.2v24.9H220v-20.9c0-4.8-.7-9.7-6.5-9.7-5.7 0-7.5 4.9-7.5 9.7v20.9h-14.5V68.2zm48 9.5c0 4.5-3.6 8.1-8.1 8.1-4.4 0-8.1-3.6-8.1-8.1 0-4.4 3.7-8.1 8.1-8.1 4.5 0 8.1 3.7 8.1 8.1zm-.9 56.4h-14.4V93.4h14.4zm18.7 0h-14.4V68.2h14.4z" class="a"/><path fill-rule="evenodd" d="M308 129.6h-.2c-2.5 4-7.5 5.8-12.3 5.8-12 0-20.5-10.1-20.5-21.7 0-11.7 8.3-21.7 20.4-21.7 4.7 0 9.6 1.8 12.6 5.3V68.2h14.5v65.9H308zm-18.1-15.8c0 5.1 3.4 9.1 9.3 9.1s9.3-4 9.3-9.1c0-5-3.4-9.2-9.3-9.2s-9.3 4.2-9.3 9.2z" class="a"/><path d="M340.7 100h.1c2.8-5 7.6-7.2 13.2-7.2h2.8v13.9c-2-1.1-3.9-1.4-6.1-1.4-8.1 0-10 5.4-10 12.3v16.5h-14.5V93.4h14.5z" class="a"/><path fill-rule="evenodd" d="M402.7 116.1h-30.4c0 5.9 3.1 9.1 9 9.1 3.1 0 5.3-1 6.9-3.7h13.9c-2.3 9.6-11.4 13.9-20.7 13.9-13.5 0-23.6-7.6-23.6-21.6 0-13.6 9.3-21.8 22.6-21.8 14.1 0 22.3 8.7 22.3 22.6zm-13.4-8.3c-.7-3.9-4.3-6.4-8.2-6.4-4.2 0-7.7 2.2-8.6 6.4z" class="a"/><path d="M419.7 98.6h.2c3.3-4.9 7.4-6.6 13-6.6 11 0 15.3 6.9 15.3 16.9v25.2h-14.4v-19.9c0-3.9.6-10.7-6.5-10.7-5.9 0-7.6 4.4-7.6 9.5v21.1h-14.4V93.4h14.4zm44.9-13.9-9.2 12.2h-5.9l6.6-12.2zm19.7 19.1c-2.2-1.2-5.3-2-7.8-2-1.6 0-4.5.8-4.5 2.8 0 2.8 4.5 3.2 6.5 3.6 6.8 1.3 11.9 4.5 11.9 12.1 0 10.7-9.8 15.1-19.3 15.1-5.8 0-11.5-1.6-16.4-4.7l5.2-10c3 2 7.9 4.1 11.5 4.1 1.8 0 4.5-.9 4.5-3.1 0-3.2-4.5-3.3-9-4.5-4.6-1.2-9.1-3.4-9.1-10.7 0-10 9.1-14.5 17.9-14.5 4.6 0 9.3.7 13.5 2.6zm-391-57.3h23a23 23 0 0 1 23 23c0 12.8-10.3 23.1-23 23.1h-23z" class="a"/><path d="M47.3 92.6h-23c-12.7 0-23-10.3-23-23.1a23 23 0 0 1 23-23h23z" style="fill:#d84e43"/><path d="M64.7 46.5C54.7 44 47.4 35 47.4 24.3a23 23 0 0 1 46 0c0 10.7-7.3 19.7-17.2 22.2z" style="fill:#00a786"/><path d="M93.3 92.6v-46h-46v46z" style="fill:#fed77c"/><path d="M93.3 134.2V92.6h-46v41.6z" style="fill:#00adee"/></svg>