<?xml version="1.0" encoding="UTF-8"?>
<svg xmlns="http://www.w3.org/2000/svg" xmlns:xlink="http://www.w3.org/1999/xlink" width="792pt" height="612pt" viewBox="0 0 792 612" version="1.2">
<g id="surface1">
<path style=" stroke:none;fill-rule:evenodd;fill:rgb(54.963684%,29.377747%,17.494202%);fill-opacity:1;" d="M 417.789062 291.460938 C 397.359375 313.679688 362.128906 341.300781 337.683594 361.640625 C 330.957031 367.234375 324.835938 374.136719 322.152344 381.613281 C 320.925781 385.019531 319.753906 388.472656 318.757812 391.964844 C 317.484375 396.421875 316.550781 404.148438 321.390625 408.164062 C 326.878906 412.714844 338.09375 410.613281 343.710938 408.988281 C 348.816406 407.507812 353.769531 405.601562 358.550781 403.539062 C 371.839844 397.820312 384.5 390.398438 396.457031 382.878906 C 403.054688 378.726562 409.558594 374.472656 415.917969 370.050781 C 421.429688 366.226562 427.035156 362.316406 432.199219 358.125 L 451.75 343.464844 C 455.132812 338.039062 465.289062 322.570312 473.140625 322.570312 C 476.453125 322.570312 479.640625 323.527344 482.53125 325.402344 C 489.761719 330.089844 488.542969 336.253906 485.585938 341.832031 C 484.246094 344.351562 482.027344 347.503906 478.484375 347.585938 C 476.886719 348.199219 472.097656 354.921875 471.066406 356.394531 C 469.144531 359.132812 467.332031 361.933594 465.683594 364.835938 C 454.132812 385.203125 472.957031 377.75 487.023438 372.949219 C 505.488281 366.648438 524.382812 357.042969 536.433594 347.773438 C 541.40625 345.253906 549.234375 341.667969 555.058594 346.363281 C 560.035156 350.371094 559.582031 356.648438 555.503906 359.96875 C 554.457031 360.800781 553.332031 361.585938 552.222656 362.34375 C 537.363281 372.527344 478.929688 401.382812 458.714844 395.539062 C 449.890625 392.988281 442.070312 388.214844 439.957031 379.550781 C 429.808594 386.882812 419.578125 394.289062 408.722656 400.796875 C 400.785156 405.792969 392.71875 410.683594 384.417969 415.222656 C 366.691406 424.914062 346.425781 434.464844 323.359375 430.972656 C 321.101562 430.664062 318.074219 430.179688 315.914062 429.238281 C 294.941406 421.539062 293.800781 402.921875 297.035156 387.082031 L 293.828125 389.050781 C 277.429688 399.101562 260.710938 408.667969 246.941406 415.757812 C 230.042969 424.457031 214.84375 431.707031 198.675781 438.144531 C 182.453125 444.605469 165.390625 450.203125 144.859375 455.566406 C 144.449219 455.652344 143.425781 455.917969 143.097656 455.917969 C 121.125 460.324219 100.308594 461.71875 84.152344 459.023438 C 64.789062 455.796875 51.207031 446.878906 47.574219 430.730469 L 47.421875 430.074219 L 47.441406 430.070312 L 47.421875 429.984375 C 35.6875 372.097656 116.042969 329.933594 185.769531 298.761719 C 177.191406 298.976562 168.574219 298.992188 159.988281 298.660156 L 159.046875 298.636719 C 145.949219 297.761719 134.648438 294.449219 127.390625 289.410156 C 124.144531 287.160156 121.554688 284.511719 119.742188 281.503906 C 117.5625 277.875 116.527344 273.910156 116.8125 269.660156 C 117.070312 265.820312 118.429688 261.941406 121.039062 258.109375 C 121.359375 257.617188 121.71875 257.140625 122.121094 256.6875 C 144.648438 231.316406 170.695312 217.058594 196.886719 202.726562 L 198.488281 201.851562 L 198.496094 201.867188 C 212.105469 194.363281 225.878906 187.894531 239.78125 182.289062 C 253.667969 176.6875 267.921875 171.84375 282.457031 167.601562 L 282.460938 167.617188 L 283.457031 167.375 C 294.515625 165.140625 303.039062 165.21875 309.210938 166.804688 C 314.609375 168.195312 318.664062 170.765625 321.457031 174.15625 C 324.773438 178.179688 326.097656 182.90625 325.636719 187.960938 C 325.261719 192.074219 323.65625 196.234375 320.972656 200.117188 L 320.957031 200.109375 L 320.789062 200.34375 C 314.417969 209.152344 307.589844 217.722656 299.957031 225.867188 C 292.371094 233.957031 283.898438 241.734375 274.160156 249.0625 C 273.882812 249.296875 273.589844 249.523438 273.285156 249.738281 C 268.648438 252.996094 264.804688 255.101562 261.75 256.0625 C 261.414062 256.175781 261.066406 256.277344 260.714844 256.363281 C 245.941406 259.90625 240.792969 254.238281 245.179688 239.515625 C 245.699219 237.769531 246.636719 236.117188 248 234.722656 L 263.683594 218.628906 C 267.230469 215.003906 272.597656 214.191406 276.960938 216.238281 C 279.015625 214.234375 281.007812 212.199219 282.945312 210.132812 C 289.441406 203.203125 295.238281 196.035156 300.605469 188.730469 C 297.726562 188.539062 293.808594 188.855469 288.703125 189.84375 C 275.183594 193.804688 261.773438 198.378906 248.511719 203.722656 C 235.183594 209.101562 222.222656 215.167969 209.71875 222.066406 L 209.667969 222.09375 L 209.675781 222.109375 L 208.078125 222.988281 C 186.027344 235.050781 164.082031 247.0625 145.484375 265.628906 C 141.851562 269.363281 141.9375 271.824219 145.851562 272.976562 C 149.710938 274.28125 154.753906 275.183594 160.59375 275.570312 L 160.902344 275.597656 C 180.132812 276.339844 200.324219 275.167969 219.777344 274.039062 C 228.773438 273.519531 237.605469 273.003906 246.925781 272.675781 C 253.332031 272.449219 258.707031 277.433594 258.933594 283.800781 C 259.101562 288.585938 256.3125 292.796875 252.199219 294.6875 C 243.375 298.78125 232.667969 303.441406 221.207031 308.429688 C 154.671875 337.398438 60.730469 378.296875 70.148438 425.375 L 70.242188 425.78125 C 71.566406 431.25 78.199219 434.601562 87.96875 436.230469 C 101.34375 438.460938 119.226562 437.175781 138.507812 433.316406 L 139.066406 433.195312 C 158.609375 428.085938 174.765625 422.789062 190.035156 416.707031 C 205.386719 410.59375 219.984375 403.625 236.296875 395.230469 C 249.769531 388.296875 265.925781 379.054688 281.640625 369.425781 C 291.6875 363.269531 301.636719 356.898438 310.664062 350.820312 C 315.234375 341.730469 320.316406 332.878906 325.648438 324.21875 C 332.5 313.089844 339.816406 302.226562 347.382812 291.546875 C 366.339844 264.785156 384.078125 242.8125 406.1875 218.863281 C 416.65625 207.523438 427.589844 196.480469 439.207031 186.121094 C 443.796875 182.03125 448.53125 178.03125 453.5 174.3125 C 457.222656 171.527344 461.15625 168.816406 465.339844 166.574219 C 470.324219 163.53125 477.066406 160.335938 483.753906 161.148438 C 491.695312 161.902344 496.050781 166.617188 497.117188 173.640625 C 497.769531 177.929688 494.511719 185.382812 492.859375 189.082031 C 489.617188 196.347656 485.875 203.367188 481.65625 210.113281 C 477.265625 217.125 472.300781 223.933594 467.386719 230.609375 C 452.058594 251.4375 435.261719 272.460938 417.789062 291.460938 M 431.324219 242.203125 C 439.332031 232.496094 448.230469 220.925781 455.609375 210.707031 C 461.824219 202.078125 465.917969 193.824219 471.605469 184.855469 C 463.988281 190.980469 456.980469 197.589844 450.113281 204.398438 C 440.316406 214.097656 422.128906 232.644531 413.164062 243.0625 C 400.234375 258.082031 380.125 283.84375 368.234375 299.609375 C 362.828125 306.773438 347.085938 325.898438 342.023438 333.296875 C 348.949219 328.113281 365.964844 310.957031 372.21875 305.144531 C 380.96875 297.015625 389.507812 288.570312 397.625 279.90625 C 405.742188 271.242188 423.792969 251.332031 431.324219 242.203125 M 507.726562 304.308594 C 505.695312 307.109375 502.832031 310.351562 499.265625 311.609375 C 495.898438 312.792969 492.535156 312 489.519531 309.574219 C 483.332031 304.136719 485.726562 297.554688 489.085938 292.546875 C 492.167969 287.953125 495.304688 283.089844 502.183594 283.089844 C 509.121094 283.089844 512.738281 287.496094 513.640625 293.453125 C 514.039062 296.082031 509.339844 302.261719 507.726562 304.308594 M 605.554688 199.636719 C 616.386719 199.636719 617.824219 208.71875 617.949219 216.28125 C 618.042969 221.914062 615.96875 228.078125 613.957031 233.097656 C 611.394531 239.488281 607.304688 244.5625 602.761719 249.710938 C 600.734375 252.011719 597.851562 254.851562 594.445312 255.492188 C 590.855469 256.160156 587.710938 254.289062 585.296875 251.574219 C 583.445312 249.503906 581.828125 246.914062 581.953125 244.355469 C 582.082031 241.636719 585.835938 236.285156 587.359375 233.992188 C 590.535156 229.203125 597.929688 217.542969 596.976562 211.285156 C 596.015625 204.953125 597.902344 199.636719 605.554688 199.636719 M 602.589844 369.355469 C 611.914062 368.390625 643.484375 352.929688 659.371094 344.890625 C 664.808594 362.242188 659.628906 382.121094 638.496094 384.347656 C 625.894531 385.671875 609.210938 379.667969 602.589844 369.355469 M 728.59375 281.59375 C 711.105469 302.484375 688.03125 312.175781 672.617188 321.03125 C 669.113281 304.859375 666.042969 288.914062 678.042969 277.917969 C 679.582031 276.914062 680.679688 274.253906 680.230469 272.605469 C 678.992188 268.070312 675.4375 265.042969 671.445312 262.0625 C 667.789062 260.320312 664.363281 261.101562 661.605469 262.660156 C 659.5 267.378906 626.195312 297.566406 597.972656 315.019531 C 593.089844 318.039062 587.667969 319.28125 587.054688 325.214844 C 586.816406 327.5 587.648438 329.535156 589.054688 331.09375 C 592.167969 334.539062 598.113281 335.660156 601.605469 332.050781 C 604.175781 332.605469 648.796875 305.160156 648.707031 300.46875 C 647.324219 305.804688 653.921875 331.75 654.808594 329.519531 C 649.046875 331.515625 622.089844 347.140625 600.101562 356.0625 C 598.34375 356.773438 596.644531 357.472656 594.964844 358.035156 C 586.476562 360.886719 581.773438 364.511719 581.535156 369.089844 C 581.398438 371.652344 581.957031 375.75 585.039062 378.71875 C 630.015625 421.492188 691.214844 400.070312 676.636719 341.359375 C 676.84375 338.796875 675.203125 337.722656 677.632812 336.625 C 696.492188 329.582031 721.058594 313.667969 741.933594 297.175781 C 751.835938 286.824219 740.578125 267.210938 728.59375 281.59375 "/>
</g>
</svg>
